<svg width="482" height="263" viewBox="0 0 482 263" fill="none" xmlns="http://www.w3.org/2000/svg">
<path d="M187.87 155.034V118.67H213.438V126.625H197.742V132.875H211.875V140.829H197.742V155.034H187.87ZM217.211 155.034V127.761H227.012V155.034H217.211ZM222.111 124.92C220.786 124.92 219.649 124.482 218.702 123.606C217.755 122.73 217.282 121.677 217.282 120.446C217.282 119.215 217.755 118.161 218.702 117.285C219.649 116.409 220.786 115.971 222.111 115.971C223.449 115.971 224.585 116.409 225.521 117.285C226.468 118.161 226.941 119.215 226.941 120.446C226.941 121.677 226.468 122.73 225.521 123.606C224.585 124.482 223.449 124.92 222.111 124.92ZM232.006 155.034V127.761H241.523V132.946H241.807C242.304 131.028 243.091 129.625 244.168 128.738C245.257 127.85 246.53 127.406 247.986 127.406C248.412 127.406 248.832 127.441 249.247 127.512C249.673 127.572 250.081 127.66 250.472 127.779V136.142C249.986 135.976 249.389 135.852 248.678 135.769C247.968 135.686 247.359 135.644 246.85 135.644C245.891 135.644 245.027 135.863 244.257 136.301C243.5 136.728 242.902 137.331 242.464 138.113C242.026 138.882 241.807 139.787 241.807 140.829V155.034H232.006ZM265.191 155.531C262.279 155.531 259.77 154.975 257.663 153.862C255.568 152.737 253.952 151.127 252.815 149.032C251.691 146.925 251.129 144.404 251.129 141.468C251.129 138.651 251.697 136.189 252.833 134.082C253.97 131.975 255.574 130.336 257.645 129.164C259.717 127.992 262.161 127.406 264.978 127.406C267.038 127.406 268.902 127.725 270.571 128.365C272.24 129.004 273.667 129.933 274.85 131.152C276.034 132.36 276.945 133.827 277.585 135.556C278.224 137.284 278.543 139.231 278.543 141.397V143.67H254.183V138.272H269.524C269.512 137.491 269.311 136.805 268.92 136.213C268.541 135.609 268.026 135.141 267.375 134.81C266.736 134.467 266.008 134.295 265.191 134.295C264.398 134.295 263.67 134.467 263.007 134.81C262.344 135.141 261.812 135.603 261.409 136.195C261.019 136.787 260.811 137.479 260.788 138.272V144.096C260.788 144.972 260.971 145.753 261.338 146.44C261.705 147.126 262.232 147.665 262.918 148.056C263.605 148.446 264.434 148.642 265.404 148.642C266.079 148.642 266.694 148.547 267.251 148.358C267.819 148.168 268.304 147.896 268.707 147.541C269.109 147.174 269.405 146.736 269.595 146.227H278.543C278.236 148.121 277.508 149.766 276.36 151.163C275.211 152.548 273.69 153.625 271.796 154.394C269.914 155.152 267.712 155.531 265.191 155.531ZM307.472 136.639H298.452C298.405 136.082 298.209 135.603 297.866 135.201C297.523 134.798 297.079 134.49 296.534 134.277C296.002 134.052 295.41 133.94 294.759 133.94C293.918 133.94 293.196 134.094 292.593 134.402C291.989 134.709 291.693 135.147 291.705 135.716C291.693 136.118 291.865 136.491 292.22 136.834C292.587 137.177 293.291 137.444 294.333 137.633L299.872 138.627C302.666 139.136 304.743 139.995 306.105 141.202C307.478 142.398 308.17 144.001 308.182 146.014C308.17 147.955 307.59 149.642 306.442 151.074C305.306 152.495 303.749 153.595 301.772 154.377C299.807 155.146 297.564 155.531 295.043 155.531C290.876 155.531 287.615 154.679 285.26 152.974C282.916 151.269 281.608 149.02 281.336 146.227H291.066C291.196 147.091 291.622 147.76 292.344 148.233C293.078 148.695 294.001 148.926 295.114 148.926C296.014 148.926 296.753 148.772 297.333 148.464C297.925 148.156 298.227 147.718 298.239 147.15C298.227 146.629 297.967 146.215 297.458 145.907C296.961 145.6 296.179 145.351 295.114 145.162L290.284 144.309C287.503 143.824 285.419 142.901 284.034 141.539C282.649 140.178 281.963 138.426 281.975 136.284C281.963 134.39 282.46 132.786 283.466 131.472C284.484 130.146 285.934 129.14 287.816 128.453C289.71 127.755 291.953 127.406 294.546 127.406C298.488 127.406 301.595 128.223 303.867 129.856C306.152 131.49 307.354 133.751 307.472 136.639ZM311.937 155.034V127.761H321.739V155.034H311.937ZM316.838 124.92C315.512 124.92 314.376 124.482 313.429 123.606C312.482 122.73 312.008 121.677 312.008 120.446C312.008 119.215 312.482 118.161 313.429 117.285C314.376 116.409 315.512 115.971 316.838 115.971C318.176 115.971 319.312 116.409 320.247 117.285C321.194 118.161 321.668 119.215 321.668 120.446C321.668 121.677 321.194 122.73 320.247 123.606C319.312 124.482 318.176 124.92 316.838 124.92ZM336.605 155.389C334.663 155.389 332.876 154.88 331.242 153.862C329.621 152.844 328.319 151.299 327.336 149.228C326.365 147.156 325.88 144.546 325.88 141.397C325.88 138.107 326.389 135.431 327.407 133.372C328.437 131.312 329.763 129.803 331.384 128.844C333.018 127.885 334.734 127.406 336.534 127.406C337.883 127.406 339.067 127.643 340.085 128.116C341.103 128.578 341.955 129.199 342.641 129.98C343.328 130.75 343.849 131.596 344.204 132.519H344.346V118.67H354.147V155.034H344.417V150.559H344.204C343.825 151.483 343.281 152.311 342.57 153.045C341.872 153.767 341.02 154.341 340.014 154.767C339.019 155.182 337.883 155.389 336.605 155.389ZM340.227 147.86C341.126 147.86 341.896 147.6 342.535 147.079C343.186 146.546 343.683 145.801 344.026 144.842C344.382 143.871 344.559 142.723 344.559 141.397C344.559 140.048 344.382 138.894 344.026 137.935C343.683 136.964 343.186 136.225 342.535 135.716C341.896 135.195 341.126 134.934 340.227 134.934C339.327 134.934 338.558 135.195 337.918 135.716C337.291 136.225 336.806 136.964 336.462 137.935C336.131 138.894 335.965 140.048 335.965 141.397C335.965 142.747 336.131 143.907 336.462 144.877C336.806 145.836 337.291 146.576 337.918 147.097C338.558 147.606 339.327 147.86 340.227 147.86ZM372.027 155.531C369.115 155.531 366.606 154.975 364.499 153.862C362.404 152.737 360.788 151.127 359.651 149.032C358.527 146.925 357.965 144.404 357.965 141.468C357.965 138.651 358.533 136.189 359.669 134.082C360.806 131.975 362.409 130.336 364.481 129.164C366.552 127.992 368.997 127.406 371.814 127.406C373.874 127.406 375.738 127.725 377.407 128.365C379.076 129.004 380.503 129.933 381.686 131.152C382.87 132.36 383.781 133.827 384.421 135.556C385.06 137.284 385.379 139.231 385.379 141.397V143.67H361.019V138.272H376.36C376.348 137.491 376.146 136.805 375.756 136.213C375.377 135.609 374.862 135.141 374.211 134.81C373.572 134.467 372.844 134.295 372.027 134.295C371.234 134.295 370.506 134.467 369.843 134.81C369.18 135.141 368.648 135.603 368.245 136.195C367.855 136.787 367.647 137.479 367.624 138.272V144.096C367.624 144.972 367.807 145.753 368.174 146.44C368.541 147.126 369.068 147.665 369.754 148.056C370.441 148.446 371.27 148.642 372.24 148.642C372.915 148.642 373.53 148.547 374.087 148.358C374.655 148.168 375.14 147.896 375.543 147.541C375.945 147.174 376.241 146.736 376.431 146.227H385.379C385.072 148.121 384.344 149.766 383.195 151.163C382.047 152.548 380.526 153.625 378.632 154.394C376.75 155.152 374.548 155.531 372.027 155.531ZM394.706 155.602C393.332 155.602 392.155 155.122 391.172 154.164C390.202 153.193 389.722 152.015 389.734 150.63C389.722 149.281 390.202 148.127 391.172 147.168C392.155 146.209 393.332 145.73 394.706 145.73C396.008 145.73 397.156 146.209 398.15 147.168C399.156 148.127 399.665 149.281 399.677 150.63C399.665 151.554 399.423 152.394 398.949 153.152C398.488 153.897 397.884 154.495 397.138 154.945C396.392 155.383 395.582 155.602 394.706 155.602ZM404.862 155.034V118.67H414.663V132.519H414.805C415.16 131.596 415.681 130.75 416.367 129.98C417.054 129.199 417.906 128.578 418.924 128.116C419.942 127.643 421.126 127.406 422.475 127.406C424.275 127.406 425.985 127.885 427.607 128.844C429.24 129.803 430.566 131.312 431.584 133.372C432.614 135.431 433.129 138.107 433.129 141.397C433.129 144.546 432.638 147.156 431.655 149.228C430.684 151.299 429.382 152.844 427.749 153.862C426.127 154.88 424.346 155.389 422.404 155.389C421.126 155.389 419.984 155.182 418.978 154.767C417.983 154.341 417.131 153.767 416.421 153.045C415.722 152.311 415.184 151.483 414.805 150.559H414.592V155.034H404.862ZM414.45 141.397C414.45 142.723 414.622 143.871 414.965 144.842C415.32 145.801 415.817 146.546 416.456 147.079C417.107 147.6 417.883 147.86 418.782 147.86C419.682 147.86 420.445 147.606 421.073 147.097C421.712 146.576 422.197 145.836 422.529 144.877C422.872 143.907 423.044 142.747 423.044 141.397C423.044 140.048 422.872 138.894 422.529 137.935C422.197 136.964 421.712 136.225 421.073 135.716C420.445 135.195 419.682 134.934 418.782 134.934C417.883 134.934 417.107 135.195 416.456 135.716C415.817 136.225 415.32 136.964 414.965 137.935C414.622 138.894 414.45 140.048 414.45 141.397ZM437.23 155.034V127.761H447.032V155.034H437.23ZM442.131 124.92C440.805 124.92 439.669 124.482 438.722 123.606C437.775 122.73 437.301 121.677 437.301 120.446C437.301 119.215 437.775 118.161 438.722 117.285C439.669 116.409 440.805 115.971 442.131 115.971C443.469 115.971 444.605 116.409 445.54 117.285C446.487 118.161 446.961 119.215 446.961 120.446C446.961 121.677 446.487 122.73 445.54 123.606C444.605 124.482 443.469 124.92 442.131 124.92ZM465.165 155.531C462.205 155.531 459.672 154.945 457.565 153.773C455.458 152.589 453.842 150.944 452.718 148.837C451.593 146.718 451.031 144.262 451.031 141.468C451.031 138.675 451.593 136.225 452.718 134.117C453.842 131.999 455.458 130.353 457.565 129.181C459.672 127.998 462.205 127.406 465.165 127.406C468.124 127.406 470.657 127.998 472.764 129.181C474.871 130.353 476.487 131.999 477.611 134.117C478.736 136.225 479.298 138.675 479.298 141.468C479.298 144.262 478.736 146.718 477.611 148.837C476.487 150.944 474.871 152.589 472.764 153.773C470.657 154.945 468.124 155.531 465.165 155.531ZM465.236 148.287C466.064 148.287 466.78 148.008 467.384 147.452C467.988 146.896 468.455 146.103 468.787 145.073C469.118 144.043 469.284 142.818 469.284 141.397C469.284 139.965 469.118 138.74 468.787 137.722C468.455 136.692 467.988 135.899 467.384 135.343C466.78 134.786 466.064 134.508 465.236 134.508C464.36 134.508 463.608 134.786 462.981 135.343C462.353 135.899 461.874 136.692 461.542 137.722C461.211 138.74 461.045 139.965 461.045 141.397C461.045 142.818 461.211 144.043 461.542 145.073C461.874 146.103 462.353 146.896 462.981 147.452C463.608 148.008 464.36 148.287 465.236 148.287Z" fill="white"/>
<g filter="url(#filter0_d_2676_81)">
<path d="M160.297 146.403L103.709 162.373C103.066 162.533 102.424 162.332 101.781 161.77C101.138 161.207 100.676 160.444 100.395 159.48C100.114 158.516 100.093 157.632 100.334 156.828C100.576 156.025 101.038 155.543 101.721 155.382L158.308 139.412C158.951 139.251 159.593 139.452 160.236 140.015C160.879 140.577 161.341 141.341 161.622 142.305C161.904 143.269 161.924 144.153 161.683 144.956C161.442 145.76 160.98 146.242 160.297 146.403ZM150.293 137.122C150.253 137.564 150.172 138.106 150.052 138.749L138.481 142.004C138.642 140.919 138.722 140.035 138.722 139.352C138.722 133.085 135.508 127.942 129.08 123.925C129.08 124.005 129.02 124.366 128.899 125.009C128.779 125.652 128.678 126.154 128.598 126.516C128.518 126.877 128.377 127.44 128.176 128.203C127.975 128.967 127.774 129.619 127.574 130.162C127.373 130.704 127.132 131.367 126.85 132.15C126.569 132.934 126.248 133.627 125.886 134.23C125.525 134.832 125.123 135.465 124.681 136.128C124.239 136.791 123.737 137.393 123.174 137.936C122.612 138.478 122.009 138.95 121.366 139.352C120.724 139.754 120.201 140.457 119.8 141.461L114.376 139.955C114.336 139.955 114.306 139.965 114.285 139.985L114.255 140.015L114.316 139.955L111.845 139.231C112.005 137.865 112.668 135.987 113.833 133.597C114.999 131.206 115.581 129.268 115.581 127.781C115.581 125.893 115.451 124.015 115.189 122.147C114.928 120.279 114.617 118.692 114.255 117.386C113.894 116.08 113.522 114.905 113.14 113.861C112.759 112.816 112.427 112.033 112.146 111.51L111.785 110.727C115.682 112.374 119.699 114.704 123.837 117.717C123.877 117.557 123.988 117.235 124.169 116.753C124.349 116.271 124.47 115.96 124.53 115.819C124.59 115.679 124.681 115.407 124.801 115.006C124.922 114.604 125.002 114.302 125.042 114.102C125.083 113.901 125.123 113.64 125.163 113.318C125.203 112.997 125.223 112.675 125.223 112.354C125.223 110.506 124.902 108.618 124.259 106.689C123.616 104.761 122.973 103.294 122.331 102.29L121.427 100.844C121.828 101.004 122.391 101.255 123.114 101.597C123.837 101.938 125.233 102.692 127.302 103.857C129.371 105.022 131.32 106.247 133.148 107.533C134.976 108.819 136.965 110.466 139.114 112.475C141.263 114.483 143.041 116.532 144.447 118.621L144.508 118.682C145.472 117.436 146.757 116.291 148.364 115.247C149.971 114.202 151.337 113.459 152.462 113.017L154.089 112.354C153.969 112.515 153.778 112.736 153.517 113.017C153.256 113.298 152.794 113.901 152.131 114.825C151.468 115.749 150.875 116.693 150.353 117.657C149.831 118.621 149.339 119.837 148.877 121.303C148.415 122.769 147.58 125.594 147.5 127C149.107 131.218 150.413 133.667 150.293 137.122ZM114.255 140.015L113.894 140.678C113.894 140.597 114.014 140.376 114.255 140.015ZM112.267 149.416L101.721 146.403C101.038 146.242 100.576 145.76 100.334 144.956C100.093 144.153 100.114 143.269 100.395 142.305C100.676 141.341 101.138 140.577 101.781 140.015C102.424 139.452 103.066 139.251 103.709 139.412L125.645 145.619L112.267 149.416ZM160.297 155.382C160.98 155.543 161.442 156.025 161.683 156.828C161.924 157.632 161.904 158.516 161.622 159.48C161.341 160.444 160.879 161.207 160.236 161.77C159.593 162.332 158.951 162.533 158.308 162.373L135.408 155.924L148.786 152.128L160.297 155.382Z" fill="#FF7A00"/>
</g>
<defs>
<filter id="filter0_d_2676_81" x="0.16748" y="0.84375" width="261.682" height="261.582" filterUnits="userSpaceOnUse" color-interpolation-filters="sRGB">
<feFlood flood-opacity="0" result="BackgroundImageFix"/>
<feColorMatrix in="SourceAlpha" type="matrix" values="0 0 0 0 0 0 0 0 0 0 0 0 0 0 0 0 0 0 127 0" result="hardAlpha"/>
<feOffset/>
<feGaussianBlur stdDeviation="50"/>
<feComposite in2="hardAlpha" operator="out"/>
<feColorMatrix type="matrix" values="0 0 0 0 0 0 0 0 0 0 0 0 0 0 0 0 0 0 1 0"/>
<feBlend mode="normal" in2="BackgroundImageFix" result="effect1_dropShadow_2676_81"/>
<feBlend mode="normal" in="SourceGraphic" in2="effect1_dropShadow_2676_81" result="shape"/>
</filter>
</defs>
</svg>
