<svg width="589" height="274" viewBox="0 0 589 274" fill="none" xmlns="http://www.w3.org/2000/svg">
<g filter="url(#filter0_d_24_22)">
<g opacity="0.8" filter="url(#filter1_ii_24_22)">
<circle cx="144.086" cy="170.683" r="2.35577" fill="#D9D9D9"/>
<circle cx="153.51" cy="169.337" r="2.35577" fill="#D9D9D9"/>
<circle cx="162.26" cy="167.317" r="2.35577" fill="#D9D9D9"/>
<circle cx="167.981" cy="164.288" r="2.01923" fill="#CACACA"/>
<circle cx="157.212" cy="158.904" r="1.34615" fill="#797979"/>
<circle cx="150.817" cy="157.894" r="1.00962" fill="#676767"/>
<circle cx="2.35577" cy="2.35577" r="2.35577" transform="matrix(-1 0 0 1 137.692 169)" fill="#D9D9D9"/>
<circle cx="2.35577" cy="2.35577" r="2.35577" transform="matrix(-1 0 0 1 128.942 168.706)" fill="#D9D9D9"/>
<circle cx="2.35577" cy="2.35577" r="2.35577" transform="matrix(-1 0 0 1 119.519 167.654)" fill="#D9D9D9"/>
<circle cx="2.35577" cy="2.35577" r="2.35577" transform="matrix(-1 0 0 1 110.77 165.635)" fill="#D9D9D9"/>
<circle cx="2.01923" cy="2.01923" r="2.01923" transform="matrix(-1 0 0 1 104.038 162.269)" fill="#CACACA"/>
<circle cx="1.34615" cy="1.34615" r="1.34615" transform="matrix(-1 0 0 1 114.135 157.558)" fill="#797979"/>
<circle cx="1.00962" cy="1.00962" r="1.00962" transform="matrix(-1 0 0 1 119.519 156.885)" fill="#676767"/>
<circle cx="162.933" cy="160.587" r="1.68269" fill="#B0B0B0"/>
<circle cx="1.68269" cy="1.68269" r="1.68269" transform="matrix(-1 0 0 1 108.75 158.904)" fill="#B0B0B0"/>
</g>
<g filter="url(#filter2_ii_24_22)">
<path d="M146.501 129.422C148.622 115.626 142.115 105.338 137.276 100.584C136.641 99.9609 135.428 100.511 135.194 101.369C134.785 102.863 133.931 104.84 132.413 107.232C124.889 119.079 109.871 127.568 109.86 141.603C109.851 152.931 119.838 160.1 127.763 163.366C128.593 163.709 129.371 162.824 129.027 161.995C125.353 153.144 129.145 148.636 133.523 144.296C134.186 143.64 135.37 144.18 135.398 145.112C135.63 152.914 139.683 159.945 144.039 162.608C144.336 162.789 144.717 162.774 145.014 162.594C163.732 151.246 159.175 132.514 153.108 123.696C152.712 123.121 151.868 123.176 151.508 123.774C149.416 127.252 148.37 129.143 147.502 130.109C147.017 130.648 146.39 130.139 146.501 129.422Z" fill="url(#paint0_linear_24_22)"/>
</g>
<g filter="url(#filter3_f_24_22)">
<path d="M123.79 124.168L116.308 131.615L122.018 123.961L127.729 118.376L132.455 112.584L136.787 104.309L133.242 113.825L129.698 119.617L123.79 124.168Z" fill="#FFC977" fill-opacity="0.7"/>
</g>
<g filter="url(#filter4_f_24_22)">
<path d="M145.736 135.752L141.717 139.579L144.784 135.646L147.851 132.776L150.389 129.799L152.715 125.547L150.812 130.437L148.908 133.414L145.736 135.752Z" fill="#FFC977"/>
</g>
<path d="M196.87 161.034V124.67H222.438V132.625H206.742V138.875H220.875V146.829H206.742V161.034H196.87ZM226.211 161.034V133.761H236.012V161.034H226.211ZM231.111 130.92C229.786 130.92 228.649 130.482 227.702 129.606C226.755 128.73 226.282 127.677 226.282 126.446C226.282 125.215 226.755 124.161 227.702 123.285C228.649 122.409 229.786 121.971 231.111 121.971C232.449 121.971 233.585 122.409 234.521 123.285C235.468 124.161 235.941 125.215 235.941 126.446C235.941 127.677 235.468 128.73 234.521 129.606C233.585 130.482 232.449 130.92 231.111 130.92ZM241.006 161.034V133.761H250.523V138.946H250.807C251.304 137.028 252.091 135.625 253.168 134.738C254.257 133.85 255.53 133.406 256.986 133.406C257.412 133.406 257.832 133.441 258.247 133.512C258.673 133.572 259.081 133.66 259.472 133.779V142.142C258.986 141.976 258.389 141.852 257.678 141.769C256.968 141.686 256.359 141.644 255.85 141.644C254.891 141.644 254.027 141.863 253.257 142.301C252.5 142.728 251.902 143.331 251.464 144.113C251.026 144.882 250.807 145.787 250.807 146.829V161.034H241.006ZM274.191 161.531C271.279 161.531 268.77 160.975 266.663 159.862C264.568 158.737 262.952 157.127 261.815 155.032C260.691 152.925 260.129 150.404 260.129 147.468C260.129 144.651 260.697 142.189 261.833 140.082C262.97 137.975 264.574 136.336 266.645 135.164C268.717 133.992 271.161 133.406 273.978 133.406C276.038 133.406 277.902 133.725 279.571 134.365C281.24 135.004 282.667 135.933 283.85 137.152C285.034 138.36 285.945 139.827 286.585 141.556C287.224 143.284 287.543 145.231 287.543 147.397V149.67H263.183V144.272H278.524C278.512 143.491 278.311 142.805 277.92 142.213C277.541 141.609 277.026 141.141 276.375 140.81C275.736 140.467 275.008 140.295 274.191 140.295C273.398 140.295 272.67 140.467 272.007 140.81C271.344 141.141 270.812 141.603 270.409 142.195C270.019 142.787 269.811 143.479 269.788 144.272V150.096C269.788 150.972 269.971 151.753 270.338 152.44C270.705 153.126 271.232 153.665 271.918 154.056C272.605 154.446 273.434 154.642 274.404 154.642C275.079 154.642 275.694 154.547 276.251 154.358C276.819 154.168 277.304 153.896 277.707 153.541C278.109 153.174 278.405 152.736 278.595 152.227H287.543C287.236 154.121 286.508 155.766 285.36 157.163C284.211 158.548 282.69 159.625 280.796 160.394C278.914 161.152 276.712 161.531 274.191 161.531ZM316.472 142.639H307.452C307.405 142.082 307.209 141.603 306.866 141.201C306.523 140.798 306.079 140.49 305.534 140.277C305.002 140.052 304.41 139.94 303.759 139.94C302.918 139.94 302.196 140.094 301.593 140.402C300.989 140.709 300.693 141.147 300.705 141.716C300.693 142.118 300.865 142.491 301.22 142.834C301.587 143.177 302.291 143.444 303.333 143.633L308.872 144.627C311.666 145.136 313.743 145.995 315.105 147.202C316.478 148.398 317.17 150.001 317.182 152.014C317.17 153.955 316.59 155.642 315.442 157.074C314.306 158.495 312.749 159.595 310.772 160.377C308.807 161.146 306.564 161.531 304.043 161.531C299.876 161.531 296.615 160.679 294.26 158.974C291.916 157.269 290.608 155.02 290.336 152.227H300.066C300.196 153.091 300.622 153.76 301.344 154.233C302.078 154.695 303.001 154.926 304.114 154.926C305.014 154.926 305.753 154.772 306.333 154.464C306.925 154.156 307.227 153.718 307.239 153.15C307.227 152.629 306.967 152.215 306.458 151.907C305.961 151.6 305.179 151.351 304.114 151.162L299.284 150.309C296.503 149.824 294.419 148.901 293.034 147.539C291.649 146.178 290.963 144.426 290.975 142.284C290.963 140.39 291.46 138.786 292.466 137.472C293.484 136.146 294.934 135.14 296.816 134.453C298.71 133.755 300.953 133.406 303.546 133.406C307.488 133.406 310.595 134.223 312.867 135.856C315.152 137.49 316.354 139.751 316.472 142.639ZM320.937 161.034V133.761H330.739V161.034H320.937ZM325.838 130.92C324.512 130.92 323.376 130.482 322.429 129.606C321.482 128.73 321.008 127.677 321.008 126.446C321.008 125.215 321.482 124.161 322.429 123.285C323.376 122.409 324.512 121.971 325.838 121.971C327.176 121.971 328.312 122.409 329.247 123.285C330.194 124.161 330.668 125.215 330.668 126.446C330.668 127.677 330.194 128.73 329.247 129.606C328.312 130.482 327.176 130.92 325.838 130.92ZM345.605 161.389C343.663 161.389 341.876 160.88 340.242 159.862C338.621 158.844 337.319 157.299 336.336 155.228C335.365 153.156 334.88 150.546 334.88 147.397C334.88 144.107 335.389 141.431 336.407 139.372C337.437 137.312 338.763 135.803 340.384 134.844C342.018 133.885 343.734 133.406 345.534 133.406C346.883 133.406 348.067 133.643 349.085 134.116C350.103 134.578 350.955 135.199 351.641 135.98C352.328 136.75 352.849 137.596 353.204 138.519H353.346V124.67H363.147V161.034H353.417V156.559H353.204C352.825 157.483 352.281 158.311 351.57 159.045C350.872 159.767 350.02 160.341 349.014 160.767C348.019 161.182 346.883 161.389 345.605 161.389ZM349.227 153.86C350.126 153.86 350.896 153.6 351.535 153.079C352.186 152.546 352.683 151.801 353.026 150.842C353.382 149.871 353.559 148.723 353.559 147.397C353.559 146.048 353.382 144.894 353.026 143.935C352.683 142.964 352.186 142.225 351.535 141.716C350.896 141.195 350.126 140.934 349.227 140.934C348.327 140.934 347.558 141.195 346.918 141.716C346.291 142.225 345.806 142.964 345.462 143.935C345.131 144.894 344.965 146.048 344.965 147.397C344.965 148.747 345.131 149.907 345.462 150.877C345.806 151.836 346.291 152.576 346.918 153.097C347.558 153.606 348.327 153.86 349.227 153.86ZM381.027 161.531C378.115 161.531 375.606 160.975 373.499 159.862C371.404 158.737 369.788 157.127 368.651 155.032C367.527 152.925 366.965 150.404 366.965 147.468C366.965 144.651 367.533 142.189 368.669 140.082C369.806 137.975 371.409 136.336 373.481 135.164C375.552 133.992 377.997 133.406 380.814 133.406C382.874 133.406 384.738 133.725 386.407 134.365C388.076 135.004 389.503 135.933 390.686 137.152C391.87 138.36 392.781 139.827 393.421 141.556C394.06 143.284 394.379 145.231 394.379 147.397V149.67H370.019V144.272H385.36C385.348 143.491 385.146 142.805 384.756 142.213C384.377 141.609 383.862 141.141 383.211 140.81C382.572 140.467 381.844 140.295 381.027 140.295C380.234 140.295 379.506 140.467 378.843 140.81C378.18 141.141 377.648 141.603 377.245 142.195C376.855 142.787 376.647 143.479 376.624 144.272V150.096C376.624 150.972 376.807 151.753 377.174 152.44C377.541 153.126 378.068 153.665 378.754 154.056C379.441 154.446 380.27 154.642 381.24 154.642C381.915 154.642 382.53 154.547 383.087 154.358C383.655 154.168 384.14 153.896 384.543 153.541C384.945 153.174 385.241 152.736 385.431 152.227H394.379C394.072 154.121 393.344 155.766 392.195 157.163C391.047 158.548 389.526 159.625 387.632 160.394C385.75 161.152 383.548 161.531 381.027 161.531ZM403.706 161.602C402.332 161.602 401.155 161.122 400.172 160.164C399.202 159.193 398.722 158.015 398.734 156.63C398.722 155.281 399.202 154.127 400.172 153.168C401.155 152.209 402.332 151.73 403.706 151.73C405.008 151.73 406.156 152.209 407.15 153.168C408.156 154.127 408.665 155.281 408.677 156.63C408.665 157.554 408.423 158.394 407.949 159.152C407.488 159.897 406.884 160.495 406.138 160.945C405.392 161.383 404.582 161.602 403.706 161.602ZM413.862 161.034V124.67H423.663V138.519H423.805C424.16 137.596 424.681 136.75 425.367 135.98C426.054 135.199 426.906 134.578 427.924 134.116C428.942 133.643 430.126 133.406 431.475 133.406C433.275 133.406 434.985 133.885 436.607 134.844C438.24 135.803 439.566 137.312 440.584 139.372C441.614 141.431 442.129 144.107 442.129 147.397C442.129 150.546 441.638 153.156 440.655 155.228C439.684 157.299 438.382 158.844 436.749 159.862C435.127 160.88 433.346 161.389 431.404 161.389C430.126 161.389 428.984 161.182 427.978 160.767C426.983 160.341 426.131 159.767 425.421 159.045C424.722 158.311 424.184 157.483 423.805 156.559H423.592V161.034H413.862ZM423.45 147.397C423.45 148.723 423.622 149.871 423.965 150.842C424.32 151.801 424.817 152.546 425.456 153.079C426.107 153.6 426.883 153.86 427.782 153.86C428.682 153.86 429.445 153.606 430.073 153.097C430.712 152.576 431.197 151.836 431.529 150.877C431.872 149.907 432.044 148.747 432.044 147.397C432.044 146.048 431.872 144.894 431.529 143.935C431.197 142.964 430.712 142.225 430.073 141.716C429.445 141.195 428.682 140.934 427.782 140.934C426.883 140.934 426.107 141.195 425.456 141.716C424.817 142.225 424.32 142.964 423.965 143.935C423.622 144.894 423.45 146.048 423.45 147.397ZM446.23 161.034V133.761H456.032V161.034H446.23ZM451.131 130.92C449.805 130.92 448.669 130.482 447.722 129.606C446.775 128.73 446.301 127.677 446.301 126.446C446.301 125.215 446.775 124.161 447.722 123.285C448.669 122.409 449.805 121.971 451.131 121.971C452.469 121.971 453.605 122.409 454.54 123.285C455.487 124.161 455.961 125.215 455.961 126.446C455.961 127.677 455.487 128.73 454.54 129.606C453.605 130.482 452.469 130.92 451.131 130.92ZM474.165 161.531C471.205 161.531 468.672 160.945 466.565 159.773C464.458 158.589 462.842 156.944 461.718 154.837C460.593 152.718 460.031 150.262 460.031 147.468C460.031 144.675 460.593 142.225 461.718 140.117C462.842 137.999 464.458 136.353 466.565 135.181C468.672 133.998 471.205 133.406 474.165 133.406C477.124 133.406 479.657 133.998 481.764 135.181C483.871 136.353 485.487 137.999 486.611 140.117C487.736 142.225 488.298 144.675 488.298 147.468C488.298 150.262 487.736 152.718 486.611 154.837C485.487 156.944 483.871 158.589 481.764 159.773C479.657 160.945 477.124 161.531 474.165 161.531ZM474.236 154.287C475.064 154.287 475.78 154.008 476.384 153.452C476.988 152.896 477.455 152.103 477.787 151.073C478.118 150.043 478.284 148.818 478.284 147.397C478.284 145.965 478.118 144.74 477.787 143.722C477.455 142.692 476.988 141.899 476.384 141.343C475.78 140.786 475.064 140.508 474.236 140.508C473.36 140.508 472.608 140.786 471.981 141.343C471.353 141.899 470.874 142.692 470.542 143.722C470.211 144.74 470.045 145.965 470.045 147.397C470.045 148.818 470.211 150.043 470.542 151.073C470.874 152.103 471.353 152.896 471.981 153.452C472.608 154.008 473.36 154.287 474.236 154.287Z" fill="white"/>
</g>
<defs>
<filter id="filter0_d_24_22" x="-0.000244141" y="0.31665" width="588.298" height="273.395" filterUnits="userSpaceOnUse" color-interpolation-filters="sRGB">
<feFlood flood-opacity="0" result="BackgroundImageFix"/>
<feColorMatrix in="SourceAlpha" type="matrix" values="0 0 0 0 0 0 0 0 0 0 0 0 0 0 0 0 0 0 127 0" result="hardAlpha"/>
<feOffset/>
<feGaussianBlur stdDeviation="50"/>
<feComposite in2="hardAlpha" operator="out"/>
<feColorMatrix type="matrix" values="0 0 0 0 0 0 0 0 0 0 0 0 0 0 0 0 0 0 1 0"/>
<feBlend mode="normal" in2="BackgroundImageFix" result="effect1_dropShadow_24_22"/>
<feBlend mode="normal" in="SourceGraphic" in2="effect1_dropShadow_24_22" result="shape"/>
</filter>
<filter id="filter1_ii_24_22" x="99.9998" y="153.885" width="72.0002" height="21.8271" filterUnits="userSpaceOnUse" color-interpolation-filters="sRGB">
<feFlood flood-opacity="0" result="BackgroundImageFix"/>
<feBlend mode="normal" in="SourceGraphic" in2="BackgroundImageFix" result="shape"/>
<feColorMatrix in="SourceAlpha" type="matrix" values="0 0 0 0 0 0 0 0 0 0 0 0 0 0 0 0 0 0 127 0" result="hardAlpha"/>
<feOffset dy="-3"/>
<feGaussianBlur stdDeviation="1.5"/>
<feComposite in2="hardAlpha" operator="arithmetic" k2="-1" k3="1"/>
<feColorMatrix type="matrix" values="0 0 0 0 0 0 0 0 0 0 0 0 0 0 0 0 0 0 0.25 0"/>
<feBlend mode="normal" in2="shape" result="effect1_innerShadow_24_22"/>
<feColorMatrix in="SourceAlpha" type="matrix" values="0 0 0 0 0 0 0 0 0 0 0 0 0 0 0 0 0 0 127 0" result="hardAlpha"/>
<feOffset dx="2" dy="2"/>
<feGaussianBlur stdDeviation="1"/>
<feComposite in2="hardAlpha" operator="arithmetic" k2="-1" k3="1"/>
<feColorMatrix type="matrix" values="0 0 0 0 1 0 0 0 0 1 0 0 0 0 1 0 0 0 0.25 0"/>
<feBlend mode="normal" in2="effect1_innerShadow_24_22" result="effect2_innerShadow_24_22"/>
</filter>
<filter id="filter2_ii_24_22" x="109.86" y="96.3167" width="48.5435" height="71.1252" filterUnits="userSpaceOnUse" color-interpolation-filters="sRGB">
<feFlood flood-opacity="0" result="BackgroundImageFix"/>
<feBlend mode="normal" in="SourceGraphic" in2="BackgroundImageFix" result="shape"/>
<feColorMatrix in="SourceAlpha" type="matrix" values="0 0 0 0 0 0 0 0 0 0 0 0 0 0 0 0 0 0 127 0" result="hardAlpha"/>
<feOffset dy="4"/>
<feGaussianBlur stdDeviation="2"/>
<feComposite in2="hardAlpha" operator="arithmetic" k2="-1" k3="1"/>
<feColorMatrix type="matrix" values="0 0 0 0 0.991667 0 0 0 0 0.570208 0 0 0 0 0.570208 0 0 0 0.25 0"/>
<feBlend mode="normal" in2="shape" result="effect1_innerShadow_24_22"/>
<feColorMatrix in="SourceAlpha" type="matrix" values="0 0 0 0 0 0 0 0 0 0 0 0 0 0 0 0 0 0 127 0" result="hardAlpha"/>
<feOffset dy="-4"/>
<feGaussianBlur stdDeviation="2"/>
<feComposite in2="hardAlpha" operator="arithmetic" k2="-1" k3="1"/>
<feColorMatrix type="matrix" values="0 0 0 0 1 0 0 0 0 0.805 0 0 0 0 0.625 0 0 0 0.25 0"/>
<feBlend mode="normal" in2="effect1_innerShadow_24_22" result="effect2_innerShadow_24_22"/>
</filter>
<filter id="filter3_f_24_22" x="111.308" y="99.3093" width="30.4792" height="37.3057" filterUnits="userSpaceOnUse" color-interpolation-filters="sRGB">
<feFlood flood-opacity="0" result="BackgroundImageFix"/>
<feBlend mode="normal" in="SourceGraphic" in2="BackgroundImageFix" result="shape"/>
<feGaussianBlur stdDeviation="2.5" result="effect1_foregroundBlur_24_22"/>
</filter>
<filter id="filter4_f_24_22" x="136.717" y="120.547" width="20.998" height="24.0322" filterUnits="userSpaceOnUse" color-interpolation-filters="sRGB">
<feFlood flood-opacity="0" result="BackgroundImageFix"/>
<feBlend mode="normal" in="SourceGraphic" in2="BackgroundImageFix" result="shape"/>
<feGaussianBlur stdDeviation="2.5" result="effect1_foregroundBlur_24_22"/>
</filter>
<linearGradient id="paint0_linear_24_22" x1="134.439" y1="118.838" x2="134.132" y2="164.23" gradientUnits="userSpaceOnUse">
<stop stop-color="#E32626"/>
<stop offset="0.817708" stop-color="#FF7A00"/>
</linearGradient>
</defs>
</svg>
